<?xml version="1.0" standalone="no"?>
<!DOCTYPE svg PUBLIC "-//W3C//DTD SVG 20010904//EN"
 "http://www.w3.org/TR/2001/REC-SVG-20010904/DTD/svg10.dtd">
<svg version="1.0" xmlns="http://www.w3.org/2000/svg"
 width="700.000000pt" height="700.000000pt" viewBox="0 0 700.000000 700.000000"
 preserveAspectRatio="xMidYMid meet">
<metadata>
Created by potrace 1.14, written by Peter Selinger 2001-2017
</metadata>
<g transform="translate(0.000000,700.000000) scale(0.100000,-0.100000)"
fill="#000000" stroke="none">
<path d="M0 3500 l0 -3500 3500 0 3500 0 0 3500 0 3500 -3500 0 -3500 0 0
-3500z m3795 2136 c424 -72 695 -294 784 -642 30 -120 41 -261 41 -545 l0
-259 -340 0 -340 0 0 208 c0 306 -27 444 -107 561 -75 108 -198 158 -368 148
-208 -12 -322 -104 -376 -302 -30 -109 -34 -404 -6 -505 27 -99 63 -165 130
-237 107 -114 174 -151 532 -295 524 -210 701 -336 816 -582 41 -88 70 -196
90 -336 18 -127 15 -472 -5 -603 -92 -587 -432 -869 -1092 -903 -311 -16 -641
53 -820 172 -146 97 -255 248 -317 439 -56 170 -75 319 -84 648 l-6 247 355 0
356 0 5 -292 c5 -304 13 -367 56 -492 62 -175 170 -261 343 -273 196 -14 355
70 426 224 52 114 67 211 67 433 0 218 -13 298 -65 408 -74 156 -192 234 -651
430 -546 233 -755 460 -835 907 -24 138 -25 493 0 653 57 377 199 588 473 702
133 56 250 82 478 104 81 8 373 -4 460 -18z"/>
</g>
</svg>
